<svg width="87" height="17" viewBox="0 0 87 17" fill="none" xmlns="http://www.w3.org/2000/svg">
<path d="M10.9432 5.14773H9.17045C9.10227 4.76894 8.97538 4.43561 8.78977 4.14773C8.60417 3.85985 8.37689 3.61553 8.10795 3.41477C7.83902 3.21401 7.53788 3.0625 7.20455 2.96023C6.875 2.85795 6.52462 2.80682 6.15341 2.80682C5.48295 2.80682 4.88258 2.97538 4.35227 3.3125C3.82576 3.64962 3.40909 4.14394 3.10227 4.79545C2.79924 5.44697 2.64773 6.24242 2.64773 7.18182C2.64773 8.12879 2.79924 8.92803 3.10227 9.57955C3.40909 10.2311 3.82765 10.7235 4.35795 11.0568C4.88826 11.3902 5.48485 11.5568 6.14773 11.5568C6.51515 11.5568 6.86364 11.5076 7.19318 11.4091C7.52652 11.3068 7.82765 11.1572 8.09659 10.9602C8.36553 10.7633 8.5928 10.5227 8.77841 10.2386C8.9678 9.95076 9.09848 9.62121 9.17045 9.25L10.9432 9.25568C10.8485 9.82765 10.6648 10.3542 10.392 10.8352C10.1231 11.3125 9.77652 11.7254 9.35227 12.0739C8.93182 12.4186 8.45076 12.6856 7.90909 12.875C7.36742 13.0644 6.77652 13.1591 6.13636 13.1591C5.12879 13.1591 4.23106 12.9205 3.44318 12.4432C2.6553 11.9621 2.03409 11.2746 1.57955 10.3807C1.12879 9.48674 0.903409 8.42045 0.903409 7.18182C0.903409 5.93939 1.13068 4.87311 1.58523 3.98295C2.03977 3.08901 2.66098 2.40341 3.44886 1.92614C4.23674 1.44508 5.13258 1.20455 6.13636 1.20455C6.75379 1.20455 7.32955 1.29356 7.86364 1.47159C8.40152 1.64583 8.88447 1.90341 9.3125 2.24432C9.74053 2.58144 10.0947 2.99432 10.375 3.48295C10.6553 3.9678 10.8447 4.52273 10.9432 5.14773ZM14.6065 1.36364V13H12.9077V1.36364H14.6065ZM16.892 13V4.27273H18.5909V13H16.892ZM17.75 2.92614C17.4545 2.92614 17.2008 2.82765 16.9886 2.63068C16.7803 2.42992 16.6761 2.19129 16.6761 1.91477C16.6761 1.63447 16.7803 1.39583 16.9886 1.19886C17.2008 0.998106 17.4545 0.897727 17.75 0.897727C18.0455 0.897727 18.2973 0.998106 18.5057 1.19886C18.7178 1.39583 18.8239 1.63447 18.8239 1.91477C18.8239 2.19129 18.7178 2.42992 18.5057 2.63068C18.2973 2.82765 18.0455 2.92614 17.75 2.92614ZM24.6378 13.1761C23.7779 13.1761 23.0374 12.9924 22.4162 12.625C21.7988 12.2538 21.3215 11.733 20.9844 11.0625C20.651 10.3883 20.4844 9.59848 20.4844 8.69318C20.4844 7.79924 20.651 7.01136 20.9844 6.32955C21.3215 5.64773 21.7912 5.11553 22.3935 4.73295C22.9995 4.35038 23.7079 4.15909 24.5185 4.15909C25.0109 4.15909 25.4882 4.24053 25.9503 4.40341C26.4124 4.56629 26.8272 4.82197 27.1946 5.17045C27.562 5.51894 27.8518 5.97159 28.0639 6.52841C28.276 7.08144 28.3821 7.75379 28.3821 8.54545V9.14773H21.4446V7.875H26.7173C26.7173 7.42803 26.6264 7.0322 26.4446 6.6875C26.2628 6.33902 26.0071 6.06439 25.6776 5.86364C25.3518 5.66288 24.9692 5.5625 24.5298 5.5625C24.0526 5.5625 23.6359 5.67992 23.2798 5.91477C22.9276 6.14583 22.6548 6.44886 22.4616 6.82386C22.2723 7.19508 22.1776 7.59848 22.1776 8.03409V9.02841C22.1776 9.61174 22.2798 10.108 22.4844 10.517C22.6927 10.9261 22.9825 11.2386 23.3537 11.4545C23.7249 11.6667 24.1586 11.7727 24.6548 11.7727C24.9768 11.7727 25.2704 11.7273 25.5355 11.6364C25.8007 11.5417 26.0298 11.4015 26.223 11.2159C26.4162 11.0303 26.5639 10.8011 26.6662 10.5284L28.2741 10.8182C28.1454 11.2917 27.9143 11.7064 27.581 12.0625C27.2514 12.4148 26.8366 12.6894 26.3366 12.8864C25.8404 13.0795 25.2741 13.1761 24.6378 13.1761ZM31.9659 7.81818V13H30.267V4.27273H31.8977V5.69318H32.0057C32.2064 5.23106 32.5208 4.85985 32.9489 4.57955C33.3807 4.29924 33.9242 4.15909 34.5795 4.15909C35.1742 4.15909 35.6951 4.28409 36.142 4.53409C36.589 4.7803 36.9356 5.14773 37.1818 5.63636C37.428 6.125 37.5511 6.72917 37.5511 7.44886V13H35.8523V7.65341C35.8523 7.02083 35.6875 6.52652 35.358 6.17045C35.0284 5.81061 34.5758 5.63068 34 5.63068C33.6061 5.63068 33.2557 5.71591 32.9489 5.88636C32.6458 6.05682 32.4053 6.30682 32.2273 6.63636C32.053 6.96212 31.9659 7.35606 31.9659 7.81818ZM43.9034 4.27273V5.63636H39.1364V4.27273H43.9034ZM40.4148 2.18182H42.1136V10.4375C42.1136 10.767 42.1629 11.0152 42.2614 11.1818C42.3598 11.3447 42.4867 11.4564 42.642 11.517C42.8011 11.5739 42.9735 11.6023 43.1591 11.6023C43.2955 11.6023 43.4148 11.5928 43.517 11.5739C43.6193 11.5549 43.6989 11.5398 43.7557 11.5284L44.0625 12.9318C43.964 12.9697 43.8239 13.0076 43.642 13.0455C43.4602 13.0871 43.233 13.1098 42.9602 13.1136C42.5133 13.1212 42.0966 13.0417 41.7102 12.875C41.3239 12.7083 41.0114 12.4508 40.7727 12.1023C40.5341 11.7538 40.4148 11.3163 40.4148 10.7898V2.18182ZM50.1534 13V1.36364H51.9091V11.4886H57.1818V13H50.1534ZM62.7244 13.1761C61.9063 13.1761 61.1922 12.9886 60.5824 12.6136C59.9725 12.2386 59.4991 11.714 59.1619 11.0398C58.8248 10.3655 58.6562 9.57765 58.6562 8.67614C58.6562 7.77083 58.8248 6.97917 59.1619 6.30114C59.4991 5.62311 59.9725 5.09659 60.5824 4.72159C61.1922 4.34659 61.9063 4.15909 62.7244 4.15909C63.5426 4.15909 64.2566 4.34659 64.8665 4.72159C65.4763 5.09659 65.9498 5.62311 66.2869 6.30114C66.6241 6.97917 66.7926 7.77083 66.7926 8.67614C66.7926 9.57765 66.6241 10.3655 66.2869 11.0398C65.9498 11.714 65.4763 12.2386 64.8665 12.6136C64.2566 12.9886 63.5426 13.1761 62.7244 13.1761ZM62.7301 11.75C63.2604 11.75 63.6998 11.6098 64.0483 11.3295C64.3968 11.0492 64.6544 10.6761 64.821 10.2102C64.9915 9.74432 65.0767 9.23106 65.0767 8.67045C65.0767 8.11364 64.9915 7.60227 64.821 7.13636C64.6544 6.66667 64.3968 6.28977 64.0483 6.00568C63.6998 5.72159 63.2604 5.57955 62.7301 5.57955C62.196 5.57955 61.7528 5.72159 61.4006 6.00568C61.0521 6.28977 60.7926 6.66667 60.6222 7.13636C60.4555 7.60227 60.3722 8.11364 60.3722 8.67045C60.3722 9.23106 60.4555 9.74432 60.6222 10.2102C60.7926 10.6761 61.0521 11.0492 61.4006 11.3295C61.7528 11.6098 62.196 11.75 62.7301 11.75ZM72.348 16.4545C71.6548 16.4545 71.0582 16.3636 70.5582 16.1818C70.062 16 69.6567 15.7595 69.3423 15.4602C69.0279 15.161 68.7931 14.8333 68.6378 14.4773L70.098 13.875C70.2003 14.0417 70.3366 14.2178 70.5071 14.4034C70.6813 14.5928 70.9162 14.7538 71.2116 14.8864C71.5109 15.0189 71.8954 15.0852 72.3651 15.0852C73.009 15.0852 73.5412 14.928 73.9616 14.6136C74.3821 14.303 74.5923 13.8068 74.5923 13.125V11.4091H74.4844C74.3821 11.5947 74.2344 11.8011 74.0412 12.0284C73.8518 12.2557 73.5904 12.4527 73.2571 12.6193C72.9238 12.786 72.4901 12.8693 71.956 12.8693C71.2666 12.8693 70.6454 12.7083 70.0923 12.3864C69.5431 12.0606 69.1075 11.5814 68.7855 10.9489C68.4673 10.3125 68.3082 9.5303 68.3082 8.60227C68.3082 7.67424 68.4654 6.87879 68.7798 6.21591C69.098 5.55303 69.5336 5.04545 70.0866 4.69318C70.6397 4.33712 71.2666 4.15909 71.9673 4.15909C72.509 4.15909 72.9465 4.25 73.2798 4.43182C73.6132 4.60985 73.8726 4.81818 74.0582 5.05682C74.2476 5.29545 74.3935 5.50568 74.4957 5.6875H74.6207V4.27273H76.2855V13.1932C76.2855 13.9432 76.1113 14.5587 75.7628 15.0398C75.4143 15.5208 74.9427 15.8769 74.348 16.108C73.7571 16.339 73.0904 16.4545 72.348 16.4545ZM72.331 11.4602C72.8196 11.4602 73.2325 11.3466 73.5696 11.1193C73.9105 10.8883 74.1681 10.5587 74.3423 10.1307C74.5204 9.69886 74.6094 9.18182 74.6094 8.57955C74.6094 7.99242 74.5223 7.47538 74.348 7.02841C74.1738 6.58144 73.9181 6.23295 73.581 5.98295C73.2438 5.72917 72.8272 5.60227 72.331 5.60227C71.8196 5.60227 71.3935 5.73485 71.0526 6C70.7116 6.26136 70.4541 6.61742 70.2798 7.06818C70.1094 7.51894 70.0241 8.02273 70.0241 8.57955C70.0241 9.15152 70.1113 9.65341 70.2855 10.0852C70.4598 10.517 70.7173 10.8542 71.0582 11.0966C71.4029 11.339 71.8272 11.4602 72.331 11.4602ZM82.2401 13.1761C81.4219 13.1761 80.7079 12.9886 80.098 12.6136C79.4882 12.2386 79.0147 11.714 78.6776 11.0398C78.3404 10.3655 78.1719 9.57765 78.1719 8.67614C78.1719 7.77083 78.3404 6.97917 78.6776 6.30114C79.0147 5.62311 79.4882 5.09659 80.098 4.72159C80.7079 4.34659 81.4219 4.15909 82.2401 4.15909C83.0582 4.15909 83.7723 4.34659 84.3821 4.72159C84.992 5.09659 85.4654 5.62311 85.8026 6.30114C86.1397 6.97917 86.3082 7.77083 86.3082 8.67614C86.3082 9.57765 86.1397 10.3655 85.8026 11.0398C85.4654 11.714 84.992 12.2386 84.3821 12.6136C83.7723 12.9886 83.0582 13.1761 82.2401 13.1761ZM82.2457 11.75C82.776 11.75 83.2154 11.6098 83.5639 11.3295C83.9124 11.0492 84.17 10.6761 84.3366 10.2102C84.5071 9.74432 84.5923 9.23106 84.5923 8.67045C84.5923 8.11364 84.5071 7.60227 84.3366 7.13636C84.17 6.66667 83.9124 6.28977 83.5639 6.00568C83.2154 5.72159 82.776 5.57955 82.2457 5.57955C81.7116 5.57955 81.2685 5.72159 80.9162 6.00568C80.5677 6.28977 80.3082 6.66667 80.1378 7.13636C79.9711 7.60227 79.8878 8.11364 79.8878 8.67045C79.8878 9.23106 79.9711 9.74432 80.1378 10.2102C80.3082 10.6761 80.5677 11.0492 80.9162 11.3295C81.2685 11.6098 81.7116 11.75 82.2457 11.75Z" fill="black"/>
</svg>
