<svg width="35" height="28" viewBox="0 0 35 28" fill="none" xmlns="http://www.w3.org/2000/svg">
<path d="M31.5 0H7C5.06975 0 3.5 1.56975 3.5 3.5V12.25H7V7L18.2 15.4C18.503 15.6269 18.8714 15.7496 19.25 15.7496C19.6286 15.7496 19.997 15.6269 20.3 15.4L31.5 7V22.75H17.5V26.25H31.5C33.4303 26.25 35 24.6803 35 22.75V3.5C35 1.56975 33.4303 0 31.5 0ZM19.25 11.8125L8.1655 3.5H30.3345L19.25 11.8125Z" fill="white"/>
<path d="M0 14H12.25V17.5H0V14ZM3.5 19.25H14V22.75H3.5V19.25ZM8.75 24.5H15.75V28H8.75V24.5Z" fill="white"/>
</svg>
