<svg width="93" height="63" viewBox="0 0 93 63" fill="none" xmlns="http://www.w3.org/2000/svg">
<path d="M33.032 10.3631C33.032 14.0136 30.8142 16.4543 27.4342 16.4543C25.7548 16.4543 24.4337 15.7831 23.5608 14.5734V20.2922H20.1119V4.26956H23.5608V6.03905C24.4123 4.82935 25.7335 4.15808 27.3678 4.15808C30.7478 4.15808 33.032 6.6439 33.032 10.3631ZM29.5381 10.2517C29.5381 8.32562 28.3284 6.93565 26.5589 6.93565C24.7895 6.93565 23.5584 8.3019 23.5584 10.2517C23.5584 12.2441 24.7895 13.5866 26.5589 13.5866C28.3284 13.5866 29.5381 12.2204 29.5381 10.2517Z" fill="#414042"/>
<path d="M42.304 16.6156V15.2043C41.4975 16.21 40.1977 16.7722 38.5183 16.7722C35.9424 16.7722 34.3745 15.2043 34.3745 13.0103C34.3745 10.7474 36.0088 9.40487 38.9643 9.38352H42.2779V9.16055C42.2779 7.88206 41.4264 7.14438 39.7707 7.14438C38.6962 7.14438 37.4415 7.50492 36.1867 8.19754L35.1122 5.8232C36.903 4.9266 38.4472 4.43323 40.5535 4.43323C43.777 4.43323 45.6366 6.04616 45.6603 8.75732L45.6817 16.618H42.304V16.6156ZM42.2803 12.4955V11.421H39.5715C38.2503 11.421 37.6004 11.8243 37.6004 12.7873C37.6004 13.7076 38.3167 14.3101 39.4814 14.3101C40.9377 14.3101 42.0787 13.525 42.2803 12.4955Z" fill="#414042"/>
<path d="M53.7701 11.7128L52.2259 13.347V16.6156H48.7771V0H52.2259V9.13681L56.6378 4.59212H60.5563L56.1444 9.22694L60.7579 16.6156H56.6829L53.7701 11.7128Z" fill="#414042"/>
<path d="M29.4978 32.7948C28.9286 33.2858 28.0652 33.5206 27.2184 33.5206C25.1192 33.5206 23.919 32.3631 23.919 30.2615V24.5451H22.1519V22.9938H23.919V20.7144H25.8047V22.9938H28.7886V24.5451H25.8047V30.1832C25.8047 31.3028 26.3929 31.9314 27.4342 31.9314C27.9845 31.9314 28.5135 31.7559 28.9072 31.4404L29.4978 32.7948Z" fill="#414042"/>
<path d="M37.3727 22.8966V24.723C37.2162 24.704 37.0786 24.704 36.941 24.704C34.9178 24.704 33.6606 25.9422 33.6606 28.2193V33.4044H31.7749V22.9939H33.5823V24.7396C34.2512 23.5252 35.5463 22.8966 37.3727 22.8966Z" fill="#414042"/>
<path d="M38.6322 28.2003C38.6322 25.0978 40.9283 22.8966 44.0521 22.8966C47.1736 22.8966 49.4531 25.0978 49.4531 28.2003C49.4531 31.3029 47.1736 33.523 44.0521 33.523C40.9283 33.523 38.6322 31.3029 38.6322 28.2003ZM47.5484 28.2003C47.5484 25.9802 46.0565 24.5475 44.0521 24.5475C42.0478 24.5475 40.5369 25.9802 40.5369 28.2003C40.5369 30.4205 42.0478 31.8745 44.0521 31.8745C46.0541 31.8721 47.5484 30.4205 47.5484 28.2003Z" fill="#414042"/>
<path d="M52.0646 18.8309H53.9503V33.4043H52.0646V18.8309Z" fill="#414042"/>
<path d="M57.5463 18.8309H59.432V33.4043H57.5463V18.8309Z" fill="#414042"/>
<path d="M72.3948 28.8289H63.9506C64.1854 30.6553 65.6584 31.8745 67.722 31.8745C68.9412 31.8745 69.9612 31.4618 70.7273 30.6174L71.771 31.8342C70.8269 32.9348 69.3943 33.523 67.6651 33.523C64.3064 33.523 62.0673 31.3029 62.0673 28.2003C62.0673 25.1168 64.285 22.8966 67.2903 22.8966C70.2956 22.8966 72.4351 25.0575 72.4351 28.2596C72.4327 28.4162 72.4138 28.651 72.3948 28.8289ZM63.9482 27.4721H70.6253C70.4284 25.724 69.112 24.4858 67.2856 24.4858C65.4805 24.4858 64.1451 25.705 63.9482 27.4721Z" fill="#414042"/>
<path d="M84.0624 22.9961L79.0172 34.4456C78.0922 36.6444 76.8943 37.3323 75.3027 37.3323C74.3018 37.3323 73.2795 37.0002 72.6343 36.3693L73.4384 34.9556C73.9483 35.4466 74.5959 35.7217 75.3027 35.7217C76.2065 35.7217 76.7757 35.309 77.2881 34.1112L77.6225 33.383L73.028 22.9938H74.9896L78.6259 31.3217L82.2194 22.9938H84.0624V22.9961Z" fill="#414042"/>
<path d="M27.223 41.4832C27.223 41.0586 27.5504 40.7621 27.9441 40.7621C28.326 40.7621 28.6438 41.0586 28.6438 41.4832C28.6438 41.9077 28.326 42.2137 27.9441 42.2137C27.5504 42.2137 27.223 41.9077 27.223 41.4832Z" fill="#58595B"/>
<path d="M29.4598 39.3414C29.4598 37.6667 30.7004 36.4784 32.4295 36.4784C33.4376 36.4784 34.2749 36.8935 34.7185 37.6762L33.9452 38.1744C33.5847 37.6241 33.032 37.3679 32.4177 37.3679C31.3147 37.3679 30.4893 38.1411 30.4893 39.339C30.4893 40.5582 31.3171 41.3219 32.4177 41.3219C33.032 41.3219 33.5847 41.0681 33.9452 40.5155L34.7185 41.0017C34.2726 41.7869 33.4353 42.2114 32.4295 42.2114C30.7004 42.2138 29.4598 41.016 29.4598 39.3414Z" fill="#414042"/>
<path d="M35.4301 39.3414C35.4301 37.6667 36.6706 36.4784 38.3571 36.4784C40.0435 36.4784 41.2722 37.6667 41.2722 39.3414C41.2722 41.016 40.0412 42.2138 38.3571 42.2138C36.6682 42.2138 35.4301 41.016 35.4301 39.3414ZM40.2428 39.3414C40.2428 38.1435 39.4363 37.3703 38.3547 37.3703C37.2731 37.3703 36.4571 38.1435 36.4571 39.3414C36.4571 40.5392 37.2731 41.3243 38.3547 41.3243C39.4363 41.3243 40.2428 40.5392 40.2428 39.3414Z" fill="#414042"/>
<path d="M52.01 38.9168V42.1498H50.9924V39.0331C50.9924 37.9301 50.4611 37.3893 49.5408 37.3893C48.5232 37.3893 47.8543 38.0368 47.8543 39.256V42.1498H46.8368V39.0331C46.8368 37.9301 46.3054 37.3893 45.3828 37.3893C44.3652 37.3893 43.6963 38.0368 43.6963 39.256V42.1498H42.6787V36.533H43.6536V37.3703C44.0568 36.7963 44.7447 36.4808 45.5939 36.4808C46.4525 36.4808 47.1736 36.82 47.5436 37.5198C47.9682 36.8841 48.7533 36.4808 49.7068 36.4808C51.0778 36.4785 52.01 37.2636 52.01 38.9168Z" fill="#414042"/>
<path d="M93 47.4915C93 46.4882 92.1864 45.677 91.1854 45.677H25.8117C25.4014 45.677 25.0408 45.416 24.9104 45.0247L14.3931 10.8209C12.4125 4.80562 12.4054 0.763794 6.07223 0.763794H1.81455C0.811212 0.763794 0 1.57738 0 2.57835C0 3.57932 0.813584 4.3929 1.81455 4.3929H6.07223C8.9684 4.39764 9.33843 6.44228 10.9442 11.9547L21.4615 46.1585C22.0806 48.0394 23.8288 49.3037 25.8094 49.3037H91.1854C92.1864 49.3061 93 48.4925 93 47.4915Z" fill="#159CB8"/>
<path d="M44.8041 51.8892C41.9387 51.8892 39.6166 54.2113 39.6166 57.0766C39.6166 59.942 41.9387 62.2641 44.8041 62.2641C47.6694 62.2641 49.9916 59.942 49.9916 57.0766C49.9916 54.2137 47.667 51.8892 44.8041 51.8892Z" fill="#159CB8"/>
<path d="M69.4939 51.8892C66.6286 51.8892 64.3064 54.2113 64.3064 57.0766C64.3064 59.942 66.6286 62.2641 69.4939 62.2641C72.3592 62.2641 74.679 59.942 74.679 57.0766C74.679 54.2137 72.3592 51.8892 69.4939 51.8892Z" fill="#159CB8"/>
<path d="M88.2537 41.4265C88.2916 41.315 88.3153 41.1964 88.3153 41.0731C88.3153 40.5014 87.8504 40.0365 87.2764 40.0365L55.1908 40.0389C54.6192 40.0389 54.1543 40.5061 54.1543 41.0778C54.1543 41.6494 54.6192 42.1143 55.1932 42.1143L87.2788 42.1096C87.7271 42.1096 88.109 41.825 88.2537 41.4265Z" fill="#159CB8"/>
<path d="M72.862 6.13625L61.932 5.41043L72.8597 4.68461L72.9711 4.67749C73.3672 4.68698 73.6875 5.01194 73.6875 5.41043C73.6875 5.80892 73.3672 6.13388 72.9711 6.14336L72.862 6.13625Z" fill="#159CB8"/>
<path d="M76.5551 12.0401L62.551 11.1079L76.5527 10.1781L76.6951 10.171C77.2027 10.1829 77.613 10.598 77.613 11.1103C77.613 11.6227 77.2027 12.0378 76.6951 12.0496L76.5551 12.0401Z" fill="#159CB8"/>
<path d="M79.3636 18.352L63.4785 17.2965L79.3588 16.2409L79.5201 16.2314C80.0965 16.2457 80.5614 16.7153 80.5614 17.2965C80.5614 17.8752 80.0965 18.3472 79.5201 18.3615L79.3636 18.352Z" fill="#159CB8"/>
</svg>
